# xmcd
#
# Track frame offsets:
#	150
#	14689
#	26359
#	40923
#	53510
#	65705
#	79116
#	91966
#	110351
#	126568
#	146748
#	157990
#	171923
#	184524
#	200303
#	212914
#	232765
#	247396
#	260666
#
# Disc length: 3683 seconds
#
# Revision: 1
# Processed by: cddbd v1.5.1PL2 Copyright (c) Steve Scherf et al.
# Submitted via: audiograbber 1.83.01
#
DISCID=0e0e6113
DTITLE=Various Artist - Borderline
DYEAR=1900
DGENRE=
TTITLE0=B-5 - Gettin' me over mountains
TTITLE1=Derringer - Ring of fire
TTITLE2=Tekielja - Jeloezie
TTITLE3=Ramblin' Eddy - That's Texas
TTITLE4=Tina - What hurts
TTITLE5=Early Bird - Cotton song
TTITLE6=Nobbe, Bert - A dog named Cindy
TTITLE7=Swamp - Otras y otras
TTITLE8=Veenstra, Joop - 'Round here
TTITLE9=Eemscreek - Dance the night away
TTITLE10=Rattle and Frost - Devoted to you
TTITLE11=Highway 28 - Oh what a thrill
TTITLE12=Koopman, Lex - Alzheimer home
TTITLE13=Cajun Beano - Borderline
TTITLE14=Stroatklinkers - Katrien
TTITLE15=Indian Tea Band - See you soon in the saloon
TTITLE16=Stevens, Will - Ain leste keer
TTITLE17=Company - Good girl's gonna go bad
TTITLE18=Jones, Jimmy - Your best friend
EXTD=
EXTT0=
EXTT1=
EXTT2=
EXTT3=
EXTT4=
EXTT5=
EXTT6=
EXTT7=
EXTT8=
EXTT9=
EXTT10=
EXTT11=
EXTT12=
EXTT13=
EXTT14=
EXTT15=
EXTT16=
EXTT17=
EXTT18=
PLAYORDER=
